<?xml version="1.0" encoding="UTF-8"?> <!-- Generator: Adobe Illustrator 25.1.0, SVG Export Plug-In . SVG Version: 6.00 Build 0) --> <svg xmlns="http://www.w3.org/2000/svg" xmlns:xlink="http://www.w3.org/1999/xlink" version="1.1" id="Layer_1" x="0px" y="0px" viewBox="0 0 1200 800" style="enable-background:new 0 0 1200 800;" xml:space="preserve"> <style type="text/css"> .st0{fill:#FFFFFF;} </style> <rect class="st0" width="1200" height="800"></rect> <path d="M1160.5,533.8H996.8c-19,0-26.6-3.5-29.5-5.6c-0.9-0.7-1.6-0.4-1.9-0.1c-0.8,0.8-0.4,1.5,0.6,2.9c6.9,10,9.6,16.8,8.1,20.5 c-1.8,4.1-11.9,4.5-18.3,3c-7-1.6-14.9-6.7-17.1-14.1c-0.8-2.7-0.4-4.4,0.1-6.8c0.5-2,1-4.5,0.9-8.2c-0.2-6.8-2.4-10.8-4.4-14.3 c-0.2-0.4-0.5-0.8-0.7-1.2c5.7-3.5,13.9-3.6,18.9-0.2c3.3,2.2,4.4,5.5,5.4,8.5c0.9,2.8,1.8,5.4,4.5,6.2c6.8,2,15.8-11.3,22-21.6 c1.9-3.1,3.5-5.6,5.1-8.2c7-11,12.1-18.9,22.1-47.3c7.7-21.7,9.2-30.9,5.6-34c-2.3-2-6.3-0.9-13,0.7c-4.9,1.2-10.9,2.8-18.7,3.8 c-1.5,0.2-2.1,0-2.3-0.2c-0.5-0.5-0.4-2.2-0.3-3.8c0.2-3.3,0.4-7.7-2.9-11.7c-1.6-1.9-5-2.4-8.2-2.9c-2-0.3-5-0.7-5.4-1.5 c-0.8-1.5,5.9-6.5,8.4-8.3c1.7-1.3,3.4-2.5,4.4-3.5c1.8-1.7,2.3-3.2,2.2-4.7c3.1-0.2,5.4-1.4,6.6-2c0.2-0.1,0.3-0.1,0.4-0.2 c10.9-5.1,17.9-6.1,28.2,2.2c1.1,0.9,10.5,8.8,9.2,17.6c-0.6,4.5-3.8,7.5-5.4,9c-0.9,0.8-2,1.9-1,3c0.7,0.8,1.8,0.4,2.4,0.2 c4.7-1.5,18.8-10,20.1-22.2c0.8-8-4.4-14-14-24.9c-0.4-0.4-1.3-1.5-2.5-3.1c-8.4-10.6-34-43-50.3-46.5c-12.5-2.6-27.3-5-34.8-3.6 c-0.8-1.5-1.4-3.3-1.8-5.8c-1.3-7.8,1.5-13.1,4.5-18.8c3-5.7,6.1-11.5,5.5-20.2c-0.9-13.6-10.3-22.7-12.2-24.3 c-12.5-11.3-29.1-9.7-32.3-9.3c-4.9,0.7-7.9,2.1-10.7,3.4c-3.3,1.5-6.6,3.1-13.3,3.8c-4.1,0.4-7.3,0.3-9.9,0.2 c-3.9-0.1-6.4-0.2-7.8,2.1c-0.8,1.3-0.9,3.2-0.4,5.3c1.2,4.6,5.9,11.3,12.6,15c3.1,1.7,5.4,2.1,7.9,2.5c2.6,0.4,5.5,0.9,10,3.1 c2.5,1.2,6.7,3.2,10.8,7c3.9,3.6,5.7,7,7.2,9.7c1.6,2.9,2.8,5.2,5.8,5.7c3.6,0.6,6.5-2,9.1-4.2c1.7-1.5,3.5-3,4.5-2.6 c1.1,0.5,1.4,3.3,1.5,5.1c0.6,7.4-3.5,15.9-7.8,16.5c-1.3,0.2-2.3-0.4-3.4-1.1c-1.2-0.8-2.7-1.7-4.6-1c-2.7,0.9-3,3.7-3.4,6.7 c-0.4,2.9-0.8,6.2-3.3,8.7c-1.9,1.9-4.8,3.1-7.3,4.1c-2.6,1-4.8,1.9-5.9,3.5c-1.1-0.2-2.2-0.2-3.4,0.1c-3.5,0.8-10,2.2-12.5,1.4 c-5.1-1.6-4.9-5.1-4.7-9.1c0.2-3,0.4-6.1-2.4-7.7c-3.1-1.7-15.4,0.6-24.3,6.5c-20.4,13.6-34.2,33.7-37.6,41.3 c-0.7,1.6-4.3,10.1-2.9,19.2c1.5,9.6,8.6,17.7,18,24.1c-2.3,0.8-4.4,1.9-6.2,3.6c-15.3,14.6,2.1,42.8,11.4,58c1.1,1.7,2,3.3,2.8,4.7 c3.6,6.1,11.8,16.1,20.4,26.8c8.7,10.8,18.9,23.3,24.2,31.8c-11,7.8-38.4,17.7-84.6,23.6c2.9-4.1,4.8-7.6,5.6-9.7 c12.2-31.8,10.7-74.2,9.9-97c-0.2-5.3-0.3-9.5-0.3-12.3c0-0.2,0.4-22.3-7.3-55.9c-0.9-4.1-2.9-12.6-7.8-13.3 c-3.2-0.5-5.3,2.3-7.9,5.9c-2.4,3.3-5.5,7.5-10.4,10.5c-5.6,3.4-11.8,4.2-17,4.1c5-2.9,8.9-6.2,11.2-8.2 c5.1-4.4,13.7-11.7,16.1-23.2c1.7-8.2-1.6-15.4-9.7-32.8l-1-2.2c-15.9-34.3-34.1-55-54.2-61.6c-14.7-4.9-27-0.9-34.6,3.2 c-7.1,3.9-10.4,9.9-14,16.2c-8.3,14.9-10,26-8.6,56.2c1,21.2,2.7,25.3,6.4,26.9c4.4,1.9,9.2-1.3,14.2-4.7c5.6-3.8,11.3-7.7,17.4-5.9 c1.8,0.5,2.3,1.1,3.9,3.4c1.6,2.2,4.2,5.9,10.1,11.9c11.6,11.9,20.3,16.6,27.5,20c1.4,0.7,2.8,1.2,4.5,1.6c0.3,0.1,0.7,0.2,1.2,0.3 c-3.8,1.1-7.8,1.5-11.8,0.5c-3-0.7-4.2-1.8-6.8-4c-2.3-2-5.4-4.7-11.3-8.7c-11.5-7.8-17.3-11.7-25.8-12.6c-14.3-1.5-30,2.6-31.2,3.7 c-11.1,9.3-12.7,22.7-13.4,27.8c-0.3,2.6-0.3,4.6-0.4,7.2c-0.1,8.3,1,14,1.9,18.6c0.3,1.6,0.6,3,0.8,4.3c1.2,9.2,0.5,14.2-1.1,25 c-0.3,2.3-0.7,4.9-1.1,7.8c-0.1,0.7-0.2,1.4-0.3,2.1c-2.8-0.7-5.5-1.2-7.7-1.5c-5.5-8.1-13.8-15.9-24.1-22.5 c-1.6-1-18.2-8.1-27.7-1.3c-9.4,6.7-10.9,21.4-4.1,41.6c-4.4,3.7-8.8,8-13.3,12.9c-4.6,5-8,11-10.4,17.4c-0.1,0-0.1,0-0.2-0.1 c0.9-1.4,1-3.2-0.5-6.3c-5.2-11.1-10.5-32.4-10.1-52.8c0.2-10.8,2.2-15.5,4.5-21c2.3-5.5,4.9-11.8,6.2-25.3 c2.7-29.4-5.1-48.6-9.9-57.4c-1.5-2.6-4.4-7.4-7.6-11.6c-0.3-1.7-0.6-3.5-1-5.4c-2.4-12-4.6-17.5-6.8-23.4c-1.9-4.8-3.8-9.8-6-19 c1.8-11.3,2.4-32.6-13.9-47.2c-8.5-7.6-17.9-11.4-27.9-11.3c-6.1,0.1-15.3,1.9-24.6,9.6c-9,7.5-12.1,16.8-15.5,26.6 c-5.1,14.9-6.1,29-6.5,35c-0.3,3.7-0.4,7-0.5,9.9c-0.3,8.9-0.4,14.2-4.7,19.5c-1.3,1.6-2.8,2.9-4,4.1c-2.4,2.2-4.3,3.9-3.6,6.1 c0.6,1.9,2.7,1.8,5.1,1.8c2.4,0,5.7-0.1,9.1,1.3c1.8,0.7,5.2,2.4,7.8,5.7c1.9,2.5,2.8,5.2,4.5,26l0.1,1.3c0.1,1.4,0.2,2.1,0.2,2.6 c0.7,9.7,0,19.3-2.2,32.1c-1.1,6.6-2.3,11.9-3.2,16.1c-2.3,10.5-3.3,15.2,0.3,19.9c0.7,0.9,1.4,1.5,2,2c-5.8,4-10.5,7.4-12,8.4 c-3.4,2.4-6.4,4.7-9.2,6.6c-4.4,3.2-8.5,6.2-11.2,7.9c3.5-3.5,9.3-9.6,10.1-18.7c1.7-20.6-4.6-54.8-13-70.3 c-7.4-13.7-15.5-16.1-26.4-15.7c-9.3,0.4-15.5,10.9-16.6,13c-5.9,10.7-3.2,21.1,2.1,41.9c0.5,2,1,4,1.6,6.2 c9.9,39.4,15.3,61.1,12.8,73.9c-0.5,2.4-1.1,4.9-1.7,7.4c-2.1,8.6-4.1,16.8,0.1,19.6c3.2,2.2,7.9-0.2,11-1.8l0.5-0.3 c10.4-5.3,17.7-5.1,27.8-4.8c9.1,0.2,20.4,0.5,37.7-3.1c6.6-1.4,11.5-2.8,15.5-4c14.3,8.4,32.8,15.9,43.7,19.9 c1.6,14.8-13.1,28.3-13.3,28.4c-5.9,5.3-27.1,12.3-54.9,14.9c-22.7,2.1-43.3,2.6-65-12.3c-3.4-2.3-7.9-5.4-13.1-8.9 c0.7-1.6,1.2-3.3,1.4-4.9c1.9-17.6-25.1-31.1-48-39.4c-12.6-4.5-29.7-7-43.4-8.9c-8.3-1.2-17.7-2.5-18.8-3.6 c-3.3-3.3-0.5-9.6,3.6-19.1c4.8-11,11.3-26.1,13.4-46.8c0.1-1.1,0.2-2.2,0.3-3.3c0.6-6.9,1.1-12.8,5.4-19.1 c3.7-5.4,7.8-7.8,15.3-12.1c2.6-1.5,5.5-3.1,8.9-5.2c7.5-4.6,10.3-6.9,13.3-9.3c2.7-2.2,5.5-4.5,12.4-8.9 c19.5-12.3,31.3-19.7,44.6-17.5c4.7,0.8,8.2,2.5,11,3.9c3.4,1.7,6.1,3.1,8.7,1.2c3.3-2.4,2.2-6.9,0.9-12.6 c-1.5-6.7-3.5-15.1,0.6-23.2c1.6-3.2,3.4-5,5.3-6.9c2.6-2.6,5.4-5.3,7.6-11.5c1.3-3.6,1.9-7.1,2.4-9.6c0.3-1.4,0.6-3.2,0.9-3.9 c1.2,1,3.1,5.9,3.9,8.1c1.6,4.3,2.3,7.5,2.8,9.6c0.5,2.3,0.8,3.6,2.2,3.5c0.4,0,0.9-0.2,1.4-0.8c1.6-2.3,3.2-11.5,0.3-20.1 c-2.3-6.9-6.3-11.2-10-14.5c-12.9-11.6-25.5-16.5-37.5-14.6c-12.9,2.1-24.4,12-34.1,29.4c-3.2,5.7-7.2,13.6-11.5,22.1 c-7.4,14.5-19.7,38.7-22.9,39.4c-2.9,0.5-4.8-1.6-8.2-5.6c-3.4-4-8-9.4-16.2-13.1c-1.9-0.9-3.9-1.5-5.7-2c0.5-0.3,1.1-0.7,1.6-1 c2.9-2,7.3-5,11.1-10.5c1.5-2.3,2.3-4,3-5.6c0.9-2.1,1.6-3.6,3.7-5.4c1.8-1.6,3.3-2.1,4.7-2.6c1.7-0.6,3.4-1.2,5.1-3.5 c1.3-1.8,1.7-3.4,2.1-4.8c0.4-1.5,0.7-2.8,2.1-4.2c0.9-1,1.6-1.2,2.5-1.5c0.8-0.3,1.8-0.6,3.1-1.5c4-2.6,5.6-6.3,6.7-8.8 c0.4-0.9,0.9-2.1,1.2-2.3c1,0.1,3.5,5.3,4.1,12.2c0.3,4-0.2,7-0.4,8.7c-0.2,1.5-0.4,2.7,0.8,3.1c0.8,0.3,1.5-0.4,1.7-0.6 c1.9-1.8,8-11.2,5.8-21.3c-2.5-11.8-14.7-16.9-26.5-21.8c-0.8-0.4-1.8-0.8-2.9-1.3c-8.8-4.2-25.1-11.9-40.3,7.6 c-1.9,2.4-4,5-6.1,7.5c-4.2,5-8.2,9.8-9.6,12.8c-6.6,13.7-3.7,17.7-1.4,20.8c1.4,1.9,2.3,3.2,0.8,6.8c-3.1,7.2-4.7,10.8-3.2,13.9 c1.9,4.1,6.9,4.1,13.1,4.1c2.1,0,4.3,0,6.6,0.1c-2.1,0.3-4,0.3-5.9,0.4c-4.2,0.1-8.1,0.2-11.9,2.9c-1.1,0.8-2.2,1.8-3.1,3 c-2.2,0.8-4.5,1.7-6.8,2.8c-0.4,0.2-0.8,0.4-1,0.5c-9.8,4.4-14.7,17.8-24.3,44.7c-2.1,5.7-3.5,10.3-4.7,14.4 c-2.9,9.6-4.6,14.9-10.6,21.6c-1.9,2.1-4,4.2-5.9,6c-4.6,4.5-8,7.7-6.6,10.4c1.3,2.6,5.5,2.2,8.9,1.9c0.5,0,1-0.1,1.5-0.1 c20.3-1.1,46.2,32.8,52.2,68.5c0.6,3.4,1.4,22.5-2.6,26.6c-4.2,4.3-11.4,3.1-18.6-0.3c5.3-1.2,10-3,12.3-5.8 c12.5-15.1-1.9-47.8-17.1-65.5c-10.4-12.2-24.5-16.9-29.3-14.7c-9.3,4.3-0.2,48.3,0.8,51.4c5.3,17.7,12.5,23.3,20.8,29.8 c1.6,1.3,3.3,2.5,5,3.6c-6.6,0.9-13.3,1.1-17.1,1.1H39.5c-0.7,0-1.3,0.6-1.3,1.3c0,0.7,0.6,1.3,1.3,1.3h176.6 c0.7,0,10.9,0.1,20.6-1.6c9.1,5.1,18.8,7.3,24.6,1.3c5.6-5.8,3.3-28.6,3.3-28.9c-2.9-17.1-10.6-34.9-21.1-48.9 c-10.9-14.5-23.2-22.4-33.8-21.8c-0.5,0-1,0.1-1.6,0.1c-1.6,0.1-5.8,0.5-6.3-0.5c-0.5-1.1,3.5-4.9,6.1-7.4c1.9-1.8,4.1-3.9,6-6.1 c6.4-7.2,8.2-13,11.1-22.6c1.2-4,2.6-8.6,4.7-14.2c9.4-26.1,14-39.3,22.9-43.2c0.3-0.1,0.7-0.3,1.1-0.5c0.9-0.4,2.1-1,3.4-1.5 c-1.5,3-2.6,6.7-3,10.8c-1.4,12.3,2.4,25.7,9.9,34.3c7.8,9,22.1,15.3,29.5,10.4c2.1-1.4,27.4-35.4,22.9-42.5 c-1.1-1.7-2.8-2.3-5.1-3.3c-3.2-1.3-7.5-3-13.3-8.2c-8.7-7.7-19.5-10-32.3-6.9c2.7-1.3,5.6-1.4,8.8-1.5c3.8-0.1,8-0.2,12.7-2.2 c2.7,0.5,5.5,1.3,8.3,2.6c7.6,3.4,11.8,8.4,15.3,12.4c3.5,4.1,6.2,7.3,10.7,6.5c4.1-0.7,12.1-15.9,24.8-40.8 c4.3-8.4,8.3-16.3,11.5-22c9.4-16.6,20.2-26.1,32.3-28.1c11.2-1.8,23,2.9,35.3,13.9c3.4,3.1,7.2,7.1,9.3,13.4 c2,5.9,1.6,11.8,0.9,15.2c-0.5-2.1-1.2-5.2-2.7-9.1c-2.4-6.2-4.1-10.2-6.7-9.9c-2,0.2-2.5,2.6-3.1,6.1c-0.5,2.6-1,5.8-2.3,9.2 c-2,5.6-4.4,8-7,10.5c-2,2-4.1,4-5.8,7.6c-4.5,9-2.3,18.2-0.8,24.9c1.1,4.8,2,8.6,0.1,9.9c-1.2,0.9-2.8,0.2-6-1.4 c-2.8-1.4-6.7-3.3-11.8-4.2c-14.3-2.4-26.4,5.2-46.4,17.9c-7,4.4-9.9,6.8-12.7,9.1c-2.9,2.4-5.6,4.6-13,9.1 c-3.4,2.1-6.3,3.7-8.8,5.2c-7.6,4.3-12.2,7-16.2,12.9c-4.7,6.9-5.2,13.4-5.8,20.4c-0.1,1.1-0.2,2.2-0.3,3.3 c-2,20.3-8.5,35.2-13.2,46c-4.6,10.5-7.6,17.4-3,22c1.7,1.7,7.8,2.6,20.3,4.4c13.6,1.9,30.5,4.3,42.9,8.8c22,7.9,48,20.8,46.3,36.7 c-0.1,1.2-0.5,2.5-1,3.7c-31.2-20.6-86.1-53.9-99.2-43.2c-4.5,3.7-6.4,13.6-4.7,24.7c2.9,18.7,14.3,33.7,30.4,40.1 c20.4,8,46.7,2.7,62.2-6.7c5.6-3.4,9.7-7.2,12.2-11.2c4.2,2.8,8.5,5.7,12.9,8.7c22.4,15.5,43.5,14.9,66.7,12.8 c24.9-2.3,49.2-9,56.4-15.6c0.7-0.6,15.1-13.9,14.2-29.4c3.4,1.2,5.8,2,6.4,2.1c4.3,1,7.4,0.6,9.5-1.1c3.2-2.5,3.3-7.1,3.4-10.9 c0.1-2,0.1-4.1,0.7-4.9c3.4-5.1,6.9-7.1,9.4-8.5c0.5-0.3,0.9-0.5,1.3-0.8c0.5,0.2,1,0.5,1.5,0.7c-4.8,15.2-4,32.3,0.6,44.5 c4.5,12.2,12.4,19.6,22,20.7c22.1,2.6,54,2.3,55.8,1.7c1.1-0.4,1.6-1.1,1.7-1.7c0.8-2.5-2.1-6.6-8.5-15.4c-4.2-5.9-10-14-16.6-24.4 c-3.3-5.3-6.2-10.1-8.8-14.7c3.5-0.3,6.9-1.1,9.9-2.3l2.2-0.9c8.9-3.6,21.6-8.7,31.3-16.2c5,8.4,13,14.8,19.3,17 c3.5,1.3,6.5,1.3,8.7,0.1c0.2-0.1,0.5-0.3,0.7-0.4c2,2.5,3.7,5.1,5.2,7.6c-0.9,1.4-1.9,2.6-2.9,3.7l-0.5,0.5 c-2.8,2.8-9.2,9.4-8.3,17.4c0.9,6.9,7.1,11.6,12.4,15c16.8,10.5,35.4,22.2,56.5,22.2c6.4,0,13-1.1,19.8-3.5 c14.2-5.1,24.3-14.4,30.6-22.4c44.6-5.4,75.2-14.9,88.1-24.1c1.5,2.7,2.4,4.8,2.2,6.1c0,0.3-0.2,1.1-0.4,2c-1,4.8-3.2,14.7-0.5,20.2 c4.9,9.9,19.3,6.6,25.4,5.2c3.8-0.9,12-7.6,10.9-14.9c-0.9-6.3-3.4-10-4.8-12.3c-0.3-0.5-0.7-1.1-0.9-1.5c1.7-0.8,2.3-1.1,2.6-1.3 c0.4-0.2,0.4-0.2,2-0.8l2.3-0.8c4.6-1.6,5.9-5.8,7.2-9.8c1.1-3.4,2.2-6.9,5.1-9.5c0.2,0.3,0.4,0.7,0.6,1c2,3.5,3.9,6.8,4.1,13 c0.1,3.4-0.4,5.6-0.9,7.5c-0.6,2.5-1.1,4.7-0.1,8.1c2.4,8.5,11.3,14.1,19,15.9c7.1,1.7,18.7,1.4,21.3-4.5c2.3-5.2-1.9-13.2-6.2-19.8 c6,2.4,15.2,3.7,26.6,3.7h163.7c0.7,0,1.3-0.6,1.3-1.3C1161.8,534.4,1161.2,533.8,1160.5,533.8z M229.8,527.1 c-8-6.2-14.8-11.6-19.9-28.5c-2.5-8.2-8-45.6-2.2-48.3c0.5-0.2,1.1-0.3,1.9-0.3c5,0,15.9,4.5,24.3,14.4 c16.5,19.3,27.6,49.5,17.1,62.2c-2.2,2.7-7.7,4.5-13.9,5.5C234.6,530.6,232.1,528.9,229.8,527.1z M296.1,344.1 c6.2,5.5,10.9,7.4,14.1,8.7c2,0.8,3.3,1.3,3.9,2.3c2.8,4.4-19,36.5-22.1,38.9c-5.6,3.7-18.6-1.2-26.2-9.9c-7-8-10.6-20.7-9.2-32.3 c0.6-5.1,2.2-9.5,4.5-12.7C270.2,335.9,284.2,333.6,296.1,344.1z M286.8,328.8c-4.3-0.8-8.3-0.8-11.8-0.8c-0.5,0-0.9,0-1.4,0 c-6.1,0-9.6-0.1-10.8-2.6c-1-2,0.5-5.5,3.2-11.8c2.2-5,0.5-7.2-1.1-9.4c-2-2.8-4.3-5.9,1.6-18.2c1.3-2.7,5.2-7.3,9.3-12.2 c2.1-2.5,4.3-5.1,6.2-7.6c14-17.9,28.5-11,37.1-6.9c1.1,0.5,2.1,1,3,1.4c11.2,4.7,22.7,9.5,24.9,20c1.3,6.2-0.9,12.2-2.9,15.7 c0.2-1.7,0.3-3.9,0.1-6.5c-0.3-3.8-2.2-14.5-6.6-14.6c-1.9,0-2.7,1.9-3.6,3.8c-1,2.3-2.4,5.5-5.7,7.6c-1,0.7-1.8,1-2.6,1.2 c-1.1,0.4-2.2,0.8-3.5,2.2c-1.8,1.9-2.3,3.6-2.7,5.3c-0.4,1.3-0.7,2.6-1.7,3.9c-1.2,1.6-2.3,2-3.9,2.6c-1.5,0.5-3.3,1.2-5.5,3.1 c-2.5,2.2-3.4,4.1-4.4,6.3c-0.7,1.5-1.4,3.1-2.8,5.2c-3.4,5.1-7.6,7.9-10.4,9.8C289.5,327.5,288.1,328.2,286.8,328.8z M365.7,560.3 c-15,9.1-40.3,14.2-59.9,6.5c-22.7-8.9-27.8-31.4-28.8-38.1c-1.5-9.9,0-19.3,3.7-22.3c1.3-1,3.2-1.6,5.7-1.6 c14.3,0,47.6,16.5,90.7,45C374.8,553.5,371,557.1,365.7,560.3z M544.7,348.6c0.9,13.6,1.5,22.6-1.5,24.5c-0.5,0.3-1.1,0.5-1.7,0.6 c-2.3-9.8-4.3-20-5.6-28.7c-3.2-21.5-0.5-23.1-0.5-23.2c0,0,0.1,0,0.2,0c1.1,0,3.8,2.5,7.1,6.7C543.9,335.7,544.2,340.9,544.7,348.6 z M496.8,348.1c-2.4-4.5-5.6-10.8-7.9-22.9c-2.8-14.4-4.6-24-0.6-34.6c0.8-2.3,1.8-4.2,2.7-6.1c2-4,3.9-7.8,4.3-14.1 c0.2-3.7-0.2-6-0.6-8.1c-0.4-2.2-0.8-4.3-0.4-7.8c0-0.2,1.9-15.6,9.7-17.6c0.5-0.1,1.1-0.2,1.7-0.2c2.5,0,6.1,1.2,11,5.8 c6,5.7,7,11.5,8.9,22c0.8,4.3,1.6,9.3,3,15.2c-0.6,3.9-1.3,6.4-1.4,6.8c-0.2,0.5-0.3,1.2-0.5,1.9c0,0,0,0,0,0.1 c-0.2-0.8-0.6-1.4-1.2-2c-2.7-2.2-7.4-0.8-9.8,0.5c-2,1-3.6,1.9-5,2.8c-1.6,0.9-3,1.7-4.6,2.5c-0.7,0.4-1.2,1-1.2,1.9 c0,2.3,3.4,5.9,5.6,7c0.1,0.1,0.3,0.2,0.6,0.3c1.4,0.8,4.2,2.6,7.3,2.1c1.7-0.3,3.1-0.9,4.3-1.8c0,0.9-0.1,1.8,0,2.7 c0,1.7,0.1,3.1,0.2,4.2c0.2,2.4,0.2,3.2-0.5,3.9c-1.8,2-6.3,1.3-10.7,0.6c-2.4-0.4-6.4-1.1-10.8-3.7c-5.1-3-8-7.1-9.6-9.2 c-1-1.3-1.8-2.4-2.9-1.7c-1.3,0.8-1.7,1,5.8,15l0.4,0.8c7.1,13.3,10.1,21,12.6,27.2c2.4,6,4.1,10.4,8.4,16.8 c5.9,8.9,16.4,17.2,24,18c1.1,4.6,2.1,8.6,3,11.6l0.1,0.4c1.3,4.6,3.1,10.9,0.8,17.9c-0.7,2.1-1.8,4.1-3.5,6.1 c0-1.6-0.2-3.4-0.7-5.1c-1.3-4.6-4.1-8.4-7.5-10c-4.3-2-8.3-0.3-16.3,3.1c-1.2,0.5-2.6,1.1-4.1,1.7c-6.1,2.5-11.1,3.5-15.1,4.3 c-5.6,1.1-10.1,2-13.3,6.3c-0.7,0.9-1.2,1.8-1.6,2.5c0-3.7,0.8-11.1,2.8-18.5c2.7-10.1,6.4-15,9.6-19.4c3-4,5.6-7.5,6.5-14 C501.1,356.4,499.3,352.9,496.8,348.1z M523.8,293.1c-0.2,1.3-0.5,2.8-0.7,4.5c-1.2,1.7-2.9,2.9-5,3.3c-2.2,0.3-4.4-1-5.6-1.7 c-0.3-0.2-0.5-0.3-0.7-0.4c-1.9-1-3.8-3.4-4.1-4.4c1.6-0.8,3-1.6,4.4-2.4c1.4-0.8,2.9-1.7,4.9-2.7c2-1,5.5-2,6.9-0.8 C524.5,288.9,524.3,290,523.8,293.1z M530.1,285.4c1.7,6.2,3.2,10.2,4.7,14.1c2.2,5.7,4.3,11.1,6.7,23c0.1,0.3,0.1,0.6,0.2,0.9 c-2.8-2.9-5.5-4.8-7.4-3.9c-5.9,2.7-0.5,33,4.5,54.1c-6.2-1.2-15.6-8.2-21.2-16.7c-4.1-6.2-5.8-10.4-8.1-16.3 c-2.5-6.2-5.5-14-12.7-27.5l-0.5-0.8c-1.1-2-2-3.7-2.8-5.3c1.6,1.6,3.6,3.2,5.9,4.6c4.8,2.9,9.3,3.6,11.7,4 c5.1,0.8,10.3,1.7,13.1-1.4c1.4-1.6,1.3-3.3,1.2-5.8c-0.1-1.1-0.2-2.4-0.2-4c0-2.2,0.1-4.1,0.3-5.8c2.1-3.1,3-7,3.7-9.6 c0.2-0.7,0.3-1.3,0.5-1.8C529.8,286.7,529.9,286.2,530.1,285.4z M454.2,419.4c0.9-4.3,2.1-9.6,3.3-16.2c2.3-13.1,2.9-22.9,2.3-32.7 c0-0.4-0.1-1.2-0.2-2.6l-0.1-1.3c-1.8-20.6-2.6-24.2-5.1-27.3c-2.9-3.8-6.8-5.7-8.9-6.5c-3.3-1.3-6.3-1.5-8.7-1.5c-0.5,0-1,0-1.4,0 c-1,0-2.2,0-2.6-0.1c0-0.7,1.6-2.1,2.9-3.3c1.4-1.2,2.9-2.6,4.3-4.4c4.8-6,5-12,5.3-21.1c0.1-2.9,0.2-6.1,0.4-9.8 c0.4-5.9,1.4-19.8,6.4-34.4c3.2-9.5,6.3-18.4,14.7-25.4c8.7-7.3,17.3-8.9,23-9c9.3-0.2,18.1,3.4,26.1,10.6 c11.9,10.7,14.1,25.5,13.8,36.6c-0.5-2.5-0.9-4.9-1.3-7.1c-1.9-10.7-3-17.2-9.6-23.4c-5.6-5.3-10.7-7.4-15.1-6.2 c-9.6,2.5-11.6,19.1-11.7,19.9c-0.5,3.9,0,6.3,0.5,8.6c0.4,2,0.8,4.1,0.6,7.5c-0.3,5.8-2,9.2-4,13.1c-1,1.9-2,3.9-2.9,6.3 c-4.3,11.4-2.4,21.2,0.5,36c2.4,12.5,5.7,18.9,8.2,23.6c2.4,4.7,3.9,7.6,3.1,13.5c-0.8,5.8-3.1,8.9-6,12.8c-3.2,4.3-7.1,9.6-10,20.2 c-2.3,8.4-3.8,20.2-2.3,22.7c0.3,0.6,0.8,0.8,1.1,0.9c1.4,0.3,2.1-0.9,2.8-2.3c0.5-0.9,1-1.9,1.8-3c2.6-3.5,6.2-4.2,11.7-5.3 c4.2-0.8,9.3-1.8,15.6-4.5c1.5-0.6,2.8-1.2,4.1-1.7c7.5-3.2,10.9-4.6,14.1-3.1c2.7,1.3,5.1,4.5,6.2,8.4c0.8,2.7,0.8,5.4,0.1,7.5 c-1.7,1.5-3.7,3.2-6.1,5c-3.3,0.7-8.1,1-14.7,1.3c-3.8,0.2-8.6,0.4-9.4-0.2c0.2-1.7,7.8-6.5,10.7-8.4c5.2-3.3,6.6-4.2,5.8-5.7 c-0.1-0.2-0.4-0.6-1-0.8c-2.9-0.8-26,7.2-50.1,22.2c-4.9,3.1-10.6,6.9-15.8,10.4c-0.8-0.6-1.4-1.1-2.2-2 C451.1,433.4,452,429.3,454.2,419.4z M504.1,422.3c0.9,2.5,4.9,2.3,12,1.9c4-0.2,7.3-0.4,10.2-0.6c-1.4,1.1-3,2.2-4.7,3.4 c-14,10.1-21.1,15.1-29.4,14.8c-1.9-0.1-3.4-0.3-4.7-0.6c-2.4-0.4-4.4-0.8-7.3,0.3c-6.3,2.4-9.3,8.6-11.5,13.2 c-0.7,1.5-1.7,3.5-2.3,4c-0.3-0.5-0.5-1.8-0.8-2.9c-0.7-3.1-1.6-7.9-5.2-12.6c-0.8-1-1.5-1.8-2.1-2.4c4.9-3.4,10.3-7,15-9.9 c19-11.9,35.9-18.6,43.7-20.9c-0.4,0.3-0.8,0.5-1.2,0.8C508,415.8,503,419.3,504.1,422.3z M486.5,505.9c6.7-2.1,10.4-3,16.9-1.4 c3.1,0.8,18.6,5.3,22.6,18.4c0.1,0.3,0.2,0.7,0.3,1C515.8,520,499.6,513.3,486.5,505.9z M547.4,511.7c-1,1.5-1,3.7-1.1,6.3 c-0.1,3.4-0.2,7.2-2.4,8.9c-1.5,1.1-4,1.3-7.4,0.6c-1-0.2-3.6-1.1-7.3-2.4c-0.2-1-0.4-1.9-0.7-2.9c-4.5-14.4-21.2-19.3-24.5-20.2 c-7.5-1.9-11.9-0.5-19.3,1.7c-0.4,0.1-0.9,0.3-1.3,0.4c-9.5-5.6-16.7-11.5-17.9-16.6c-1.2-5.4-0.3-9.7,2.8-13 c5.2-5.5,15.8-7.1,23.6-5.8c15.4,2.6,31.7,10.8,56.6,28.6c1.8,1.3,5,3.1,9.1,5.2C554.9,503.9,551.1,506.2,547.4,511.7z M560.1,500.8 c-4.7-2.3-8.3-4.3-10.1-5.7c-25.2-18-41.9-26.4-57.7-29c-8.2-1.4-19.8,0.1-25.9,6.6c-3.7,4-4.9,9.2-3.5,15.4 c1.3,5.5,8.1,11.4,17.1,17c-3.5,1-7.7,2.1-13.1,3.3c-17,3.5-28.2,3.2-37.1,3c-10.1-0.3-18.1-0.5-29.1,5.1l-0.5,0.3 c-2.4,1.2-6.3,3.3-8.3,1.9c-2.7-1.8-0.8-9.8,1-16.9c0.6-2.5,1.2-5.1,1.7-7.5c2.5-12.8-2.1-32.2-12.9-75c-0.5-2.2-1.1-4.2-1.6-6.2 c-5.3-20.7-7.7-30.2-2.3-40c1-1.9,6.6-11.3,14.4-11.6c0.7,0,1.5,0,2.2,0c8.9,0,15.5,2.7,21.8,14.4c8.2,15.2,14.4,48.7,12.7,68.9 c-0.7,8.5-6.4,14.1-9.7,17.5c-1.8,1.8-2.7,2.7-2.7,3.8c0,0.5,0.2,0.9,0.5,1.2c1.8,1.8,4.8-0.3,17.2-9.3c2.7-2,5.8-4.2,9.1-6.6 c1.6-1.1,6.6-4.7,12.7-8.9c0.7,0.6,1.4,1.3,2.2,2.4c3.2,4.3,4.1,8.5,4.7,11.6c0.5,2.6,1,4.7,2.8,5c2.2,0.4,3.4-2.1,5.1-5.5 c2-4.2,4.8-9.9,10.1-11.9c2.2-0.8,3.7-0.6,6-0.2c1.4,0.2,3,0.5,5.1,0.6c9.2,0.3,16.5-4.9,31-15.3c3.3-2.3,6.2-4.4,8.7-6.4 c2.9-0.7,4.9-1.9,6.2-3.9c0.4-0.6,0.7-1.3,1-2c3.4-3.2,5.7-6.3,6.8-9.8c2.5-7.7,0.6-14.5-0.8-19.4l-0.1-0.4c-1-3.5-1.9-7.2-2.9-11 c0.9-0.2,1.7-0.5,2.5-0.9c4.4-2.7,3.8-10.8,2.8-26.9c-0.4-5.9-0.7-10.4-1.4-15.4c1.5,2.2,3,4.7,4.5,7.3c4.7,8.5,12.2,27.2,9.6,55.9 c-1.2,13.1-3.7,19.2-6,24.6c-2.3,5.5-4.5,10.7-4.7,22c-0.5,21,4.9,42.2,10.3,54C560.7,499,560.9,500,560.1,500.8z M750,380.9 c-1.6-0.4-2.9-0.9-4.1-1.5c-7-3.3-15.5-7.9-26.7-19.5c-5.7-5.9-8.2-9.4-9.9-11.6c-1.7-2.4-2.6-3.6-5.3-4.4c-1.3-0.4-2.6-0.5-3.8-0.5 c-5.8,0-11,3.6-15.8,6.8c-4.6,3.1-8.6,5.8-11.7,4.5c-2.4-1.1-3.9-5.3-4.8-24.7c-1.4-29.7,0.2-40.5,8.3-54.9 c3.5-6.3,6.5-11.7,13-15.2c7.2-3.9,18.7-7.6,32.6-3.1c19.3,6.4,37,26.6,52.6,60.3l1,2.2c8.1,17.3,11.1,23.8,9.5,31.2 c-2.2,10.6-10.1,17.3-15.3,21.7c-2.7,2.3-8,6.8-14.4,9.8C752.9,381.7,751.1,381.2,750,380.9z M652.2,458.7c5,1.5,9.6,3.9,10.5,7.6 c1.9,8.4-0.7,15.4-5.8,21.3C653.5,481.6,651,472.5,652.2,458.7z M649.7,458c-0.4,4.7-0.4,8.9-0.1,12.7c-0.2-0.9-0.4-1.9-0.7-3 c-1-3.6-2.6-7.3-4.7-10.9C645.8,457.1,647.7,457.5,649.7,458z M591.9,432.2c2.5-1.8,5.7-2.4,9.1-2.4c7,0,14.4,2.9,15.8,3.8 c9.2,5.9,16.7,12.7,22,19.8c-17.4-2.2-33.7,3.1-50.2,16.5C584.6,457.9,581.1,439.8,591.9,432.2z M575,486.3c4.1-4.5,8.2-8.5,12.3-12 l0.3,0.8c3.6,10,7.8,21.9,16.3,37.7c0,0,0,0,0,0c-12.9,0-27.7-4.9-38.7-9.8C567.3,496.9,570.5,491.2,575,486.3z M614.7,531.3 c6.6,10.4,12.4,18.6,16.7,24.5c4.4,6.1,8.5,11.9,8.1,13.1c0,0,0,0-0.1,0c-2.2,0.3-32.2,0.9-54.6-1.8c-8.6-1-15.7-7.8-19.9-19.1 c-4.4-11.7-5.2-28.1-0.6-42.6c11.7,5.1,27.4,10.3,41,9.8C607.9,520.3,611,525.6,614.7,531.3z M619.3,509.6l-2.3,0.9 c-3.1,1.3-6.6,2-10.3,2.2c-8.8-16.3-13.1-28.3-16.8-38.5l-0.4-1.2c-0.1-0.1-0.1-0.3-0.2-0.4c16.6-13.7,32.9-18.9,50.4-16.4 c0.3,0,0.7,0.1,1,0.2c2.6,4,4.5,8.1,5.6,12.1c1.3,5,1.2,8.1,1.1,11.1c-0.1,3.3-0.3,6.5,1.8,11.5c0.4,0.9,0.8,1.8,1.2,2.7 C641.1,500.8,628.6,505.9,619.3,509.6z M651.6,490c-1.8-4.5-1.7-7.2-1.6-10.4c0.1-1.4,0.1-2.8,0-4.5c1,6.1,2.9,10.8,5,14.5 c-0.8,0.8-1.7,1.6-2.6,2.4C652.1,491.3,651.9,490.7,651.6,490z M678.4,510.7c-1.5,0.8-3.8,0.7-6.6-0.2c-5.9-2.1-13.5-8.1-18.1-16.2 c1-0.8,1.9-1.7,2.8-2.5c0.8,1.2,1.7,2.2,2.5,3.1c2,2.1,3.3,2.9,5.2,4c1.1,0.7,2.6,1.5,4.5,2.9c4.1,2.9,7.3,5.9,9.9,8.9 C678.5,510.6,678.5,510.6,678.4,510.7z M682,510.5c1-2.3,0.9-5.8,0.7-11.1c-0.2-4.3-0.4-9.6-0.1-16.7c0.4-12.1,1.8-20.3,3.1-27.6 c0.9-5,1.7-9.7,2-15c7,37.2,6.8,63.2-0.7,77.5C685.5,515.2,683.9,512.9,682,510.5z M761.6,572.9c-28.3,10.2-52.6-5-74.1-18.4 c-5.1-3.2-10.5-7.3-11.2-13.1c-0.8-6.7,5-12.7,7.5-15.2l0.5-0.5c0.9-0.9,1.7-1.9,2.5-3c0.4,0.7,0.8,1.4,1.2,2.1 c3,5.4,5.9,10.5,10.7,15c14.2,13.1,42.3,17.4,54.2,16.7c12.9-0.7,25-1.7,36.2-3C783.2,560.5,774,568.4,761.6,572.9z M791.6,550.5 c-11.7,1.4-24.6,2.5-38.7,3.3c-11.1,0.6-38.8-3.6-52.2-16c-4.5-4.2-7.3-9.1-10.2-14.3c-0.6-1.1-1.2-2.2-1.9-3.3 c9.4-16.4,9-48.2-1.3-95c-0.1-0.5-0.1-1.1-0.2-1.6c-1.4-11.3-4-18.7-5-19.4c-0.3-0.2-0.7-0.3-1-0.2c-0.3,0.1-0.6,0.3-0.8,0.6 c-0.4,0.6-0.4,0.6,1,6.2c1.3,5.1,2.4,10.1,3.5,14.9c1.3,12.2,0,19.7-1.6,29.1c-1.3,7.3-2.7,15.6-3.1,27.9c-0.2,7.2,0,12.8,0.1,16.9 c0.2,4.3,0.2,6.9-0.1,8.7c-2.6-2.9-5.8-5.8-9.8-8.6c-2.1-1.5-3.5-2.3-4.7-3c-1.8-1.1-2.9-1.7-4.6-3.5c-0.9-0.9-1.7-2-2.6-3.2 c5.9-6.5,9.1-14.4,6.9-24.1c-1.1-4.9-6.8-7.8-12.8-9.6c0.1-0.8,0.2-1.6,0.3-2.4c0.4-2.9,0.8-5.5,1.1-7.8c1.7-11,2.4-16.1,1.1-25.7 c-0.2-1.4-0.5-2.9-0.8-4.5c-0.9-4.5-1.9-10-1.8-18.1c0-2.5,0-4.4,0.4-6.9c0.6-4.8,2.2-17.4,12.4-26c1.7-0.8,16-4.5,29.4-3.2 c7.9,0.8,13.5,4.6,24.7,12.1c5.8,3.9,8.8,6.5,11,8.5c2.8,2.4,4.3,3.7,7.9,4.6c6.1,1.5,12.2,0.1,17.4-2.2c6.1,0.7,15,0.6,22.8-4.2 c5.4-3.3,8.6-7.7,11.1-11.2c2.4-3.3,3.8-5.1,5.4-4.9c3.2,0.5,5,8.4,5.7,11.4c7.6,33.3,7.3,55,7.3,55.2c-0.1,2.9,0.1,7.1,0.3,12.5 c0.8,22.6,2.3,64.6-9.7,95.9C797.7,541.3,795.4,545.6,791.6,550.5z M939.3,314.5c0.2-0.2,0.4-0.4,0.8-0.6c0.2,0.3,0.3,0.6,0.5,0.8 c1.4,2.3,2.5,4.1,2.5,7.9c0.1,6.7-3.4,14.5-8.8,20c-3.6,3.6-7.5,5.5-11,5.5c0,0,0,0-0.1,0c-3.9,0-7-2.4-9.8-5.5 c5.8,1.4,9.9,0.3,10.1,0.2c7.7-2.2,11.8-8.3,13.2-10.8c1.8-3.3,2.5-6.5,2.8-8.1c0.6-3.5,0.1-5.9-0.2-7.5 C939.2,315.3,939.1,314.8,939.3,314.5z M903.7,324.9c2.7-1.1,5.9-2.3,8.2-4.7c3.1-3.1,3.6-7,4-10.2c0.3-2.6,0.6-4.2,1.7-4.6 c0.7-0.2,1.2,0,2.4,0.8c1.3,0.8,2.9,1.8,5.2,1.5c6.4-0.8,10.7-11.1,10.1-19.3c-0.2-2.5-0.5-6-3-7.2c-2.5-1.2-4.9,0.9-7.3,3 c-2.3,2-4.6,4-7,3.6c-1.6-0.3-2.4-1.5-3.9-4.4c-1.5-2.7-3.5-6.5-7.7-10.4c-4.5-4.2-9-6.3-11.5-7.5c-4.8-2.3-7.9-2.8-10.7-3.3 c-2.5-0.4-4.4-0.8-7.1-2.3c-5.9-3.3-10.3-9.3-11.3-13.3c-0.4-1.4-0.4-2.6,0.1-3.3c0.6-0.9,2.2-0.9,5.5-0.8c2.5,0.1,6,0.2,10.3-0.2 c7.1-0.8,10.6-2.5,14.1-4.1c2.8-1.3,5.5-2.6,10-3.2c3-0.4,18.5-1.9,30.2,8.6c1.7,1.6,10.4,10,11.3,22.6c0.5,8-2.4,13.5-5.2,18.8 c-3.1,5.8-6.2,11.7-4.8,20.4c0.4,2.6,1.1,4.6,1.9,6.2c-0.7,0.3-1.3,0.7-1.6,1.2c-1,1.2-0.7,2.6-0.4,4.1c0.3,1.5,0.7,3.5,0.2,6.6 c-0.2,1.5-0.9,4.3-2.5,7.2c-1.3,2.2-4.9,7.6-11.7,9.6c-0.3,0.1-5.4,1.5-12.4-1.4c-0.6-0.8-1.2-1.6-1.7-2.3c-2.8-3.9-5.7-7.9-9.3-9.7 C900.4,326.2,902,325.5,903.7,324.9z M905,336c-1.3-0.9-2.5-1.9-3.8-3.1c-0.7-0.7-1.9-1.8-2.3-3.3C901,330.9,903,333.2,905,336z M881.9,524.9c-4.8-7.6-13.3-18.4-24.3-31.9c-8.6-10.6-16.7-20.6-20.2-26.5c-0.8-1.4-1.8-3-2.9-4.7c-9-14.5-25.7-41.5-11.8-54.7 c2-1.9,4.6-3,7.3-3.5c11.7,7.2,26.1,11.9,37.3,14c0.3,0.1,0.7,0.1,1,0.2c3.5,3.8,7,8.5,10.3,14.5c6.7,12.2,8.7,20.3,11,29.6 c1.4,5.7,2.9,11.7,5.6,19.1c2.7,7.4,5.7,13,8.1,17.4c3.4,6.4,5.5,10.3,3.8,14.1c-0.1,0.3-0.2,0.5-2.4-0.3c-4-1.4-11.4-4.1-20,9.7 C884.1,522.8,883.2,523.8,881.9,524.9z M834.3,403.1c4.2-0.2,8.3,0.4,10.7,0.9c5.6,1.1,12.8,3.9,20,10.5c-3.2-0.7-6.7-1.6-10.5-2.8 C850.5,410.4,842.4,407.5,834.3,403.1z M924.9,520.2c-1.2,3.9-2.2,6.9-5.6,8.1l-2.3,0.8c-1.7,0.6-1.8,0.6-2.3,0.9 c-0.3,0.2-0.9,0.5-2.6,1.2c-0.8,0.3-1.2,0.8-1.4,1.5c-0.3,1.2,0.4,2.2,1.3,3.7c1.4,2.2,3.6,5.5,4.4,11.2c0.9,5.9-6.3,11.4-8.9,12 c-9.2,2.1-19,3.3-22.5-3.8c-2.3-4.7-0.2-14.4,0.7-18.5c0.2-1.1,0.4-1.8,0.4-2.2c0.2-1.8-0.8-4.5-2.8-8c1.6-1.3,2.8-2.6,3.6-3.9 c7.5-12,13.2-10,16.9-8.6c1.9,0.7,4.4,1.6,5.6-1c2.3-5-0.2-9.5-3.8-16.4c-2.3-4.4-5.3-9.8-7.9-17.1c-2.6-7.3-4.1-13.1-5.5-18.8 c-2.3-9.2-4.4-17.8-11.3-30.3c-2.7-5-5.6-9.2-8.6-12.7c4.9,0.6,9.5,0.5,10.6-1.6c1.1-2-1.3-3.9-4.6-6.5c-3.1-2.4-7.3-5.7-6.5-7.8 c1-2.4,5.1-3,8.7-3.6c3.2-0.5,6.3-1,7.6-2.8c2.9,2.7,6.3,5.3,10.3,7.5c-0.5,0.2-1,0.4-1.5,0.7c-6.1,3.5-8.1,11.4-6.1,16.6 c1.2,3,3.7,4.7,8.2,7.9c2.9,2,6.6,4,11.2,6.1c7.6,3.5,15.3,6,15.4,6.1c0.3,0.1,0.7,0.1,1-0.1c3.6-1.8,5.2-3.3,5-5.1 c-0.2-2.2-2.9-3-6-3.9c-2.2-0.6-5.3-1.5-5.5-2.7c-0.1-0.4,0.1-1.2,1.6-2.6c4.2-3.8,14.2-2.8,19.8,2c0.8,0.7,1.4,1.3,1.9,1.9 c1,1.1,2,2.2,3.8,2.4c2,0.2,3.8-0.7,5.3-1.9c-2.7,5.3-7.6,12.5-15.2,15.7c-10.3,4.3-21.1,0.5-29.8-2.6c-7.3-2.6-13-4.7-16.6-1.3 c-1.1,1-1.6,2.6-1.4,4.5c0.7,8.5,13.5,25.5,25.5,33.6c7.3,5,13.7,5.3,19.1,3.7c-4,6.3-5.9,12.5-4.8,18.9c0.4,2.1,1.1,3.9,1.8,5.5 C927.4,512.3,926,516.5,924.9,520.2z M912.9,405.8c1-0.4,1.9-0.9,2.7-1.3c0.5-0.3,1-0.5,1.5-0.8c2.5-1.2,3.6-1.2,10.7-1 c3.4,0.1,8.1,0.2,14.9,0.3c1.3,0,2.4,0,3.5,0c7.8,0,10.7,0.1,15.3,1.5c4.8,1.5,8.5,2.8,9.3,5.8c0.9,3.2-1.9,7.9-5.4,9 c-3.1,1-6.5-0.8-9.6-2.4c-3-1.6-5.9-3.1-8-1.3c-1.4,1.1-1.4,2.8-1.5,4.1c-0.1,1.3-0.1,2.1-0.7,2.5c-1,0.7-3.5,0.2-4.5-1.2 c-1.4-1.9-0.1-5.9,0.4-7.4c0.3-0.9,0.4-1.3,0.2-1.8c-0.2-0.3-0.4-0.6-0.8-0.7c-0.1,0-0.3-0.1-0.4-0.1c-0.2,0-0.4,0.1-0.6,0.2 c-0.5,0.3-0.7,0.7-1,1.8c-0.5,1.9-2,6.8-4.6,7.5c-0.9,0.2-2.1,0-2.9-0.6c2.1-3.7,3.4-8.5,3.5-8.6c0.4-1.4,0.8-3-0.4-3.6 c-1-0.5-1.9,0.4-2.3,0.8c-1.7,1.8-5.6,7.7-4,11.6c-0.3,0.4-0.6,0.8-0.9,1.1c-0.4,0.4-0.8,0.5-0.8,0.5c-0.1,0-0.3-0.1-0.7-0.5 c-0.9-1-1.8-3.3-1.6-5.5c0.2-2.2,1.4-3.8,2.3-5c0.8-1.1,1.8-2.4,1-3.6c-0.3-0.5-1-1.1-2.6-1.1c-2.5-0.1-6.1,1.2-8.1,3.8 c-1.2,1.5-1.5,3.1-1.7,4.4c-0.3,1.4-0.4,2-1,2.3c-0.8,0.5-2.1,0.3-2.9-0.3c-1.4-1.1-1.2-3.6-0.4-5c0.5-0.8,1.1-1.2,1.7-1.5 c0.6-0.4,1.5-0.9,1.5-2C913.7,406.9,913.4,406.4,912.9,405.8z M908.3,409.8c-1.4,2.5-1.4,6.4,1.1,8.3c1.6,1.3,4.1,1.5,5.7,0.5 c1.7-1,2-2.6,2.3-4.1c0.2-1.1,0.4-2.3,1.2-3.3c1.6-2.2,4.7-2.8,6.1-2.8c-0.1,0.2-0.3,0.4-0.4,0.6c-1.1,1.4-2.6,3.4-2.9,6.4 c-0.2,2.6,0.7,5.6,2.2,7.4c-1.4,0.5-2.6,1.2-3.6,2.1c-0.7,0.6-2.8,2.6-2.4,4.9c0.5,2.8,4.1,3.8,7.4,4.8c1.5,0.4,3.9,1.1,4.2,1.6 c0,0-0.2,0.8-3.1,2.2c-1.8-0.6-8.3-2.9-14.6-5.8c-4.4-2-8.1-4-10.8-5.9c-4.3-2.9-6.4-4.4-7.3-6.7c-1.6-4.1,0-10.7,4.9-13.4 c1.1-0.6,2.2-1,3.3-1.2c1.3,0.7,2.7,1.3,4.5,1.5c1.3,0.1,2.6,0.1,3.7-0.2c0.4,0.2,0.7,0.4,0.9,0.6C910,407.8,909,408.4,908.3,409.8z M932,503.2c-1.2-6.6,1.5-13.2,6.6-20.2c3.4-1.8,6.3-4.2,8.6-6.1c1.1-0.9,2-1.6,2.8-2.2c21.1-15,35.1-31.1,35.5-35.7 c0.1-0.8-0.3-1.3-0.5-1.6c-0.2-0.2-0.7-0.5-1.3-0.5c-4.1,0.1-21.2,15.9-29.3,24.3c-6.8,7.1-12.9,13.5-17.5,19.7 c-5.4,2.7-12.2,3.5-20.2-2c-11-7.5-23.7-24.1-24.3-31.7c-0.1-1.1,0.1-2,0.6-2.4c2.4-2.2,7.7-0.3,13.9,1.9c9.1,3.3,20.4,7.3,31.7,2.6 c13.4-5.6,19.1-22.6,19.3-24.2c0.1-0.8-0.4-1.2-0.5-1.3c-0.3-0.2-0.6-0.3-1-0.2c-0.6,0.1-0.8,0.4-1.4,1.2c-1.1,1.5-4.3,6.1-7.2,5.8 c-0.8-0.1-1.3-0.5-2.2-1.6c-0.5-0.6-1.2-1.3-2.1-2.1c-2.2-1.9-4.9-3.2-7.8-4.1c1-0.4,1.8-1.2,2.5-2c0.2,0.6,0.5,1.2,0.9,1.8 c1.8,2.5,5.7,3.4,8,1.9c1.7-1.1,1.8-3,1.9-4.5c0.1-1.2,0.1-1.9,0.6-2.2c0.8-0.7,3.1,0.5,5.2,1.6c3.3,1.7,7.5,3.9,11.6,2.5 c4.8-1.6,8.3-7.6,7.1-12.2c-1.2-4.5-6.7-6.2-11.1-7.6c-5-1.5-8.2-1.6-16.1-1.6c-1.1,0-2.2,0-3.5,0c-6.8-0.1-11.5-0.2-14.9-0.3 c-7.4-0.2-8.9-0.3-12,1.2c-0.5,0.2-1,0.5-1.5,0.8c-1.3,0.7-2.7,1.4-4.2,1.9c-2.3-1-5.1-1.6-8-1.3c-0.3-0.2-0.7-0.4-1-0.6 c-0.4-0.3-0.9-0.5-1.2-0.8c-4.4-2.5-8.2-5.5-11.3-8.6c-0.6-1.3-1.8-2.5-3.7-3.9c-2.8-3.3-4.9-6.3-6.3-8.4c-0.5-0.8-1-1.4-1.4-1.9 c-10.9-14.6-18.7-22.1-23-22.3c-1.2,0-2.1,0.4-2.9,1.2c-0.5,0.6-1.1,1.3,3.5,7.5c2.2,3,6.1,7.6,11.7,12.7c5,4.6,9.6,7.9,13.2,10.5 c1.2,0.9,2.4,1.7,3.4,2.5c1,1.1,2,2.3,3.2,3.4c0,0.1,0,0.1,0,0.2c-0.3,1.1-3.5,1.6-6,2c-4.3,0.7-9.2,1.4-10.7,5.1 c-1.6,4,3.3,7.8,7.3,10.9c1.3,1,3.2,2.5,3.7,3.2c-1.1,0.6-5,0.7-10.9-0.3c-8.6-9-17.4-12.6-24.1-13.9c-3.8-0.8-9.6-1.5-15-0.6 c-9.1-5.7-17.3-13.5-18.9-23.6c-1.3-8.4,2-16.2,2.7-17.7c2.2-4.8,14.7-25.6,36.7-40.2c8.4-5.6,19.7-7.4,21.6-6.4 c1.3,0.7,1.2,2.5,1.1,5.2c-0.2,4.1-0.6,9.6,6.5,11.8c2.9,0.9,8.4-0.2,13.8-1.3c0.8-0.2,1.5-0.2,2.2-0.1c0,0.2,0,0.3,0,0.4 c0.2,3,2.3,4.9,3.3,5.9c3.2,3,6.4,5,9.4,6.3c3.8,5,8.2,9.6,14.4,9.7c0,0,0.1,0,0.1,0c4.2,0,8.8-2.2,12.9-6.3 c5.9-5.9,9.7-14.5,9.6-21.8c0-4.5-1.4-6.8-2.9-9.2c0,0-0.1-0.1-0.1-0.1c5.8-0.7,17.8,0.7,32.9,3.8c15.4,3.2,40.5,35.1,48.8,45.5 c1.3,1.6,2.1,2.7,2.5,3.2c9.8,11.1,14.1,16.3,13.4,22.9c-0.9,8.2-8.9,14.8-14.3,18c1.5-1.9,2.9-4.3,3.3-7.5c1.5-10.3-9-19.1-10.2-20 c-11.3-9.1-19.3-8-30.9-2.5c-0.1,0.1-0.3,0.1-0.5,0.2c-1.2,0.6-3.5,1.8-6.3,1.7c-0.5-0.8-1.1-1.6-1.6-2.4c-1.8-2.5-3.8-5.1-3-9 c1.1-5.9,2.6-8.6,3.4-9.9c0.5-0.8,1.1-1.8,0.3-2.7c-0.9-1-2.5-1.1-4.4-0.2c-3.7,1.7-9.1,7.3-8,15.1c0.8,5.6,5.7,10.6,11.5,11.5 c0,0,0.1,0,0.2,0c0.2,1-0.1,1.8-1.3,2.9c-1,0.9-2.5,2.1-4.2,3.3c-5.5,4-11.1,8.2-9.2,11.7c1,1.9,3.9,2.3,7.3,2.8 c2.5,0.4,5.7,0.8,6.6,2c2.6,3.1,2.4,6.7,2.2,9.8c-0.1,2.4-0.3,4.5,1.2,5.9c1,0.9,2.3,1.2,4.4,0.9c7.9-1.1,14.3-2.7,18.9-3.9 c5.4-1.4,9.3-2.4,10.6-1.3c3.6,3.1-3.6,23.5-6.4,31.1c-10,28.2-15,36-21.9,46.8c-1.6,2.5-3.3,5.1-5.1,8.2 c-11.7,19.2-16.9,21-19,20.4c-1.3-0.4-1.9-2-2.7-4.5c-1.1-3.1-2.4-7.1-6.4-9.8c-2.8-1.9-6.6-2.9-10.4-2.9c-3.9,0-7.9,1-11.2,3 C932.8,506.3,932.3,504.8,932,503.2z M944,476.1c3.6-4.1,7.7-8.5,12.1-13.1c9.9-10.4,22.1-20.7,26.3-23c-2.2,4.5-13.8,18.3-34,32.6 c-0.9,0.6-1.9,1.4-2.9,2.3C945,475.3,944.5,475.7,944,476.1z M877.3,383.4c-2.7-2-5.8-4.5-9.1-7.5c-8.6-7.9-13.3-14.8-14.4-16.9 c0.1,0,0.2,0,0.3,0c1.2,0,6.4,1.7,21,21.2c0.4,0.5,0.8,1.1,1.3,1.9C876.7,382.4,877,382.9,877.3,383.4z M977.9,377.9 c0,0,0.1,0.1,0.1,0.1c-3.7-1.5-6.7-4.9-7.2-8.7c-0.9-6.2,3.2-10,4.4-11.1c1.1-0.9,2-1.3,2.6-1.6c-0.9,1.6-2.4,4.6-3.4,10.2 C973.5,371.8,975.9,375.2,977.9,377.9z"></path> </svg> 